<svg xmlns="http://www.w3.org/2000/svg" width="108.63999999999999" height="35" viewBox="0 0 108.63999999999999 35"><rect class="svg__rect" x="0" y="0" width="0" height="35" fill="#31C4F3"/><rect class="svg__rect" x="0" y="0" width="108.63999999999999" height="35" fill="#266F04"/><path class="svg__text" d="" fill="#FFFFFF"/><path class="svg__text" d="M15.61 22L13.18 22L16.89 13.60L19.23 13.60L22.95 22L20.48 22L19.82 20.37L16.27 20.37L15.61 22ZM18.04 15.93L16.96 18.61L19.12 18.61L18.04 15.93ZM29.48 22L27.10 22L27.10 13.60L29.48 13.60L29.48 22ZM37.03 22L34.65 22L34.65 13.60L38.50 13.60Q39.64 13.60 40.48 13.98Q41.32 14.35 41.77 15.06Q42.23 15.76 42.23 16.71L42.23 16.71Q42.23 17.62 41.80 18.30Q41.38 18.98 40.58 19.36L40.58 19.36L42.39 22L39.85 22L38.33 19.77L37.03 19.77L37.03 22ZM37.03 15.47L37.03 17.93L38.35 17.93Q39.08 17.93 39.46 17.61Q39.83 17.29 39.83 16.71L39.83 16.71Q39.83 16.12 39.46 15.79Q39.08 15.47 38.35 15.47L38.35 15.47L37.03 15.47ZM49.40 22L47.02 22L47.02 13.60L53.61 13.60L53.61 15.44L49.40 15.44L49.40 17.28L53.11 17.28L53.11 19.12L49.40 19.12L49.40 22ZM64.59 22L58.20 22L58.20 13.60L60.58 13.60L60.58 20.11L64.59 20.11L64.59 22ZM68.58 17.80L68.58 17.80Q68.58 16.55 69.18 15.55Q69.79 14.56 70.85 14.00Q71.91 13.43 73.24 13.43L73.24 13.43Q74.57 13.43 75.64 14.00Q76.70 14.56 77.31 15.55Q77.91 16.55 77.91 17.80L77.91 17.80Q77.91 19.05 77.31 20.04Q76.70 21.04 75.64 21.60Q74.58 22.17 73.24 22.17L73.24 22.17Q71.91 22.17 70.85 21.60Q69.79 21.04 69.18 20.04Q68.58 19.05 68.58 17.80ZM70.98 17.80L70.98 17.80Q70.98 18.51 71.28 19.05Q71.58 19.60 72.10 19.90Q72.61 20.20 73.24 20.20L73.24 20.20Q73.88 20.20 74.40 19.90Q74.91 19.60 75.21 19.05Q75.51 18.51 75.51 17.80L75.51 17.80Q75.51 17.09 75.21 16.54Q74.91 16 74.40 15.70Q73.88 15.40 73.24 15.40L73.24 15.40Q72.61 15.40 72.09 15.70Q71.58 16 71.28 16.54Q70.98 17.09 70.98 17.80ZM84.72 22L82.00 13.60L84.45 13.60L86.14 18.96L87.91 13.60L90.10 13.60L91.79 19.01L93.55 13.60L95.82 13.60L93.10 22L90.55 22L88.95 16.89L87.27 22L84.72 22Z" fill="#FFFFFF" x="39"/></svg>