<svg xmlns="http://www.w3.org/2000/svg" width="80.55" height="35" viewBox="0 0 80.55 35"><rect class="svg__rect" x="0" y="0" width="0" height="35" fill="#31C4F3"/><rect class="svg__rect" x="0" y="0" width="80.55" height="35" fill="#422C1D"/><path class="svg__text" d="" fill="#FFFFFF"/><path class="svg__text" d="M16.57 22L14.19 22L14.19 13.60L20.78 13.60L20.78 15.44L16.57 15.44L16.57 17.28L20.28 17.28L20.28 19.12L16.57 19.12L16.57 22ZM31.76 22L25.37 22L25.37 13.60L27.75 13.60L27.75 20.11L31.76 20.11L31.76 22ZM37.60 22L35.17 22L38.88 13.60L41.22 13.60L44.94 22L42.47 22L41.81 20.37L38.26 20.37L37.60 22ZM40.03 15.93L38.95 18.61L41.11 18.61L40.03 15.93ZM48.51 21.24L48.51 21.24L49.29 19.49Q49.85 19.86 50.59 20.09Q51.34 20.32 52.06 20.32L52.06 20.32Q53.42 20.32 53.43 19.64L53.43 19.64Q53.43 19.28 53.04 19.11Q52.65 18.93 51.78 18.74L51.78 18.74Q50.83 18.53 50.20 18.30Q49.56 18.06 49.11 17.55Q48.65 17.03 48.65 16.16L48.65 16.16Q48.65 15.39 49.07 14.77Q49.49 14.15 50.33 13.79Q51.16 13.43 52.37 13.43L52.37 13.43Q53.19 13.43 54.00 13.62Q54.81 13.80 55.42 14.17L55.42 14.17L54.69 15.93Q53.49 15.28 52.36 15.28L52.36 15.28Q51.65 15.28 51.32 15.49Q51.00 15.70 51.00 16.04L51.00 16.04Q51.00 16.37 51.39 16.54Q51.77 16.71 52.62 16.89L52.62 16.89Q53.58 17.10 54.21 17.33Q54.84 17.56 55.30 18.07Q55.77 18.58 55.77 19.46L55.77 19.46Q55.77 20.21 55.35 20.83Q54.93 21.44 54.09 21.80Q53.25 22.17 52.05 22.17L52.05 22.17Q51.03 22.17 50.06 21.92Q49.10 21.67 48.51 21.24ZM62.70 22L60.34 22L60.34 13.60L62.70 13.60L62.70 17.09L65.95 13.60L68.56 13.60L65.14 17.32L68.74 22L65.98 22L63.58 18.95L62.70 19.90L62.70 22Z" fill="#FFFFFF" x="39"/></svg>