<svg xmlns="http://www.w3.org/2000/svg" width="82.01" height="35" viewBox="0 0 82.01 35"><rect class="svg__rect" x="0" y="0" width="0" height="35" fill="#31C4F3"/><rect class="svg__rect" x="0" y="0" width="82.01" height="35" fill="#4A1616"/><path class="svg__text" d="" fill="#FFFFFF"/><path class="svg__text" d="M16.54 22L14.19 22L14.19 13.60L16.54 13.60L16.54 17.09L19.80 13.60L22.41 13.60L18.98 17.32L22.59 22L19.83 22L17.43 18.95L16.54 19.90L16.54 22ZM33.44 22L26.70 22L26.70 13.60L33.29 13.60L33.29 15.44L29.05 15.44L29.05 16.85L32.79 16.85L32.79 18.63L29.05 18.63L29.05 20.17L33.44 20.17L33.44 22ZM40.63 22L38.25 22L38.25 13.60L42.09 13.60Q43.23 13.60 44.07 13.98Q44.91 14.35 45.37 15.06Q45.82 15.76 45.82 16.71L45.82 16.71Q45.82 17.62 45.39 18.30Q44.97 18.98 44.18 19.36L44.18 19.36L45.99 22L43.44 22L41.92 19.77L40.63 19.77L40.63 22ZM40.63 15.47L40.63 17.93L41.94 17.93Q42.68 17.93 43.05 17.61Q43.42 17.29 43.42 16.71L43.42 16.71Q43.42 16.12 43.05 15.79Q42.68 15.47 41.94 15.47L41.94 15.47L40.63 15.47ZM52.03 22L49.60 22L53.31 13.60L55.65 13.60L59.37 22L56.90 22L56.24 20.37L52.69 20.37L52.03 22ZM54.47 15.93L53.38 18.61L55.54 18.61L54.47 15.93ZM62.94 21.24L62.94 21.24L63.72 19.49Q64.28 19.86 65.02 20.09Q65.77 20.32 66.49 20.32L66.49 20.32Q67.85 20.32 67.86 19.64L67.86 19.64Q67.86 19.28 67.47 19.11Q67.08 18.93 66.21 18.74L66.21 18.74Q65.26 18.53 64.63 18.30Q63.99 18.06 63.54 17.55Q63.08 17.03 63.08 16.16L63.08 16.16Q63.08 15.39 63.50 14.77Q63.92 14.15 64.76 13.79Q65.59 13.43 66.80 13.43L66.80 13.43Q67.63 13.43 68.43 13.62Q69.24 13.80 69.85 14.17L69.85 14.17L69.12 15.93Q67.92 15.28 66.79 15.28L66.79 15.28Q66.08 15.28 65.76 15.49Q65.43 15.70 65.43 16.04L65.43 16.04Q65.43 16.37 65.82 16.54Q66.20 16.71 67.05 16.89L67.05 16.89Q68.01 17.10 68.64 17.33Q69.27 17.56 69.73 18.07Q70.20 18.58 70.20 19.46L70.20 19.46Q70.20 20.21 69.78 20.83Q69.36 21.44 68.52 21.80Q67.68 22.17 66.48 22.17L66.48 22.17Q65.46 22.17 64.50 21.92Q63.54 21.67 62.94 21.24Z" fill="#FFFFFF" x="39"/></svg>