<svg xmlns="http://www.w3.org/2000/svg" width="148.65" height="35" viewBox="0 0 148.65 35"><rect class="svg__rect" x="0" y="0" width="0" height="35" fill="#31C4F3"/><rect class="svg__rect" x="0" y="0" width="148.65" height="35" fill="#E46C17"/><path class="svg__text" d="" fill="#FFFFFF"/><path class="svg__text" d="M15.98 15.48L13.40 15.48L13.40 13.60L20.92 13.60L20.92 15.48L18.35 15.48L18.35 22L15.98 22L15.98 15.48ZM32.04 22L25.29 22L25.29 13.60L31.88 13.60L31.88 15.44L27.65 15.44L27.65 16.85L31.38 16.85L31.38 18.63L27.65 18.63L27.65 20.17L32.04 20.17L32.04 22ZM39.17 22L36.84 22L36.84 13.60L38.80 13.60L42.51 18.07L42.51 13.60L44.83 13.60L44.83 22L42.88 22L39.17 17.52L39.17 22ZM49.41 21.24L49.41 21.24L50.19 19.49Q50.75 19.86 51.49 20.09Q52.24 20.32 52.96 20.32L52.96 20.32Q54.32 20.32 54.33 19.64L54.33 19.64Q54.33 19.28 53.94 19.11Q53.55 18.93 52.68 18.74L52.68 18.74Q51.73 18.53 51.10 18.30Q50.46 18.06 50.01 17.55Q49.56 17.03 49.56 16.16L49.56 16.16Q49.56 15.39 49.97 14.77Q50.39 14.15 51.23 13.79Q52.06 13.43 53.27 13.43L53.27 13.43Q54.10 13.43 54.90 13.62Q55.71 13.80 56.32 14.17L56.32 14.17L55.59 15.93Q54.39 15.28 53.26 15.28L53.26 15.28Q52.55 15.28 52.23 15.49Q51.90 15.70 51.90 16.04L51.90 16.04Q51.90 16.37 52.29 16.54Q52.67 16.71 53.52 16.89L53.52 16.89Q54.48 17.10 55.11 17.33Q55.74 17.56 56.21 18.07Q56.67 18.58 56.67 19.46L56.67 19.46Q56.67 20.21 56.25 20.83Q55.83 21.44 54.99 21.80Q54.15 22.17 52.95 22.17L52.95 22.17Q51.93 22.17 50.97 21.92Q50.01 21.67 49.41 21.24ZM60.82 17.80L60.82 17.80Q60.82 16.55 61.42 15.55Q62.02 14.56 63.09 14.00Q64.15 13.43 65.48 13.43L65.48 13.43Q66.81 13.43 67.87 14.00Q68.94 14.56 69.54 15.55Q70.15 16.55 70.15 17.80L70.15 17.80Q70.15 19.05 69.54 20.04Q68.94 21.04 67.88 21.60Q66.82 22.17 65.48 22.17L65.48 22.17Q64.15 22.17 63.09 21.60Q62.02 21.04 61.42 20.04Q60.82 19.05 60.82 17.80ZM63.21 17.80L63.21 17.80Q63.21 18.51 63.52 19.05Q63.82 19.60 64.33 19.90Q64.85 20.20 65.48 20.20L65.48 20.20Q66.12 20.20 66.64 19.90Q67.15 19.60 67.45 19.05Q67.75 18.51 67.75 17.80L67.75 17.80Q67.75 17.09 67.45 16.54Q67.15 16 66.64 15.70Q66.12 15.40 65.48 15.40L65.48 15.40Q64.84 15.40 64.33 15.70Q63.82 16 63.52 16.54Q63.21 17.09 63.21 17.80ZM77.26 22L74.88 22L74.88 13.60L78.72 13.60Q79.87 13.60 80.70 13.98Q81.54 14.35 82.00 15.06Q82.46 15.76 82.46 16.71L82.46 16.71Q82.46 17.62 82.03 18.30Q81.60 18.98 80.81 19.36L80.81 19.36L82.62 22L80.08 22L78.55 19.77L77.26 19.77L77.26 22ZM77.26 15.47L77.26 17.93L78.58 17.93Q79.31 17.93 79.68 17.61Q80.05 17.29 80.05 16.71L80.05 16.71Q80.05 16.12 79.68 15.79Q79.31 15.47 78.58 15.47L78.58 15.47L77.26 15.47ZM89.62 22L87.24 22L87.24 13.60L93.83 13.60L93.83 15.44L89.62 15.44L89.62 17.28L93.33 17.28L93.33 19.12L89.62 19.12L89.62 22ZM104.81 22L98.43 22L98.43 13.60L100.81 13.60L100.81 20.11L104.81 20.11L104.81 22ZM108.81 17.80L108.81 17.80Q108.81 16.55 109.41 15.55Q110.01 14.56 111.08 14.00Q112.14 13.43 113.47 13.43L113.47 13.43Q114.80 13.43 115.86 14.00Q116.93 14.56 117.53 15.55Q118.14 16.55 118.14 17.80L118.14 17.80Q118.14 19.05 117.53 20.04Q116.93 21.04 115.87 21.60Q114.81 22.17 113.47 22.17L113.47 22.17Q112.14 22.17 111.08 21.60Q110.01 21.04 109.41 20.04Q108.81 19.05 108.81 17.80ZM111.20 17.80L111.20 17.80Q111.20 18.51 111.50 19.05Q111.81 19.60 112.32 19.90Q112.84 20.20 113.47 20.20L113.47 20.20Q114.11 20.20 114.62 19.90Q115.14 19.60 115.44 19.05Q115.74 18.51 115.74 17.80L115.74 17.80Q115.74 17.09 115.44 16.54Q115.14 16 114.62 15.70Q114.11 15.40 113.47 15.40L113.47 15.40Q112.83 15.40 112.32 15.70Q111.81 16 111.50 16.54Q111.20 17.09 111.20 17.80ZM124.95 22L122.22 13.60L124.67 13.60L126.36 18.96L128.14 13.60L130.32 13.60L132.01 19.01L133.78 13.60L136.05 13.60L133.32 22L130.78 22L129.17 16.89L127.49 22L124.95 22Z" fill="#FFFFFF" x="39"/></svg>