<svg xmlns="http://www.w3.org/2000/svg" width="195.92000000000002" height="35" viewBox="0 0 195.92000000000002 35"><rect class="svg__rect" x="0" y="0" width="89.28" height="35" fill="#3A8D53"/><rect class="svg__rect" x="87.28" y="0" width="108.64" height="35" fill="#1A7BCD"/><path class="svg__text" d="M15.00 22L13.46 22L16.68 13.47L18.01 13.47L21.24 22L19.69 22L18.99 20.01L15.69 20.01L15.00 22ZM17.34 15.28L16.10 18.82L18.58 18.82L17.34 15.28ZM26.67 22L25.19 22L25.19 13.47L28.46 13.47Q29.89 13.47 30.73 14.21Q31.57 14.96 31.57 16.18L31.57 16.18Q31.57 17.44 30.74 18.13Q29.92 18.83 28.44 18.83L28.44 18.83L26.67 18.83L26.67 22ZM26.67 14.66L26.67 17.64L28.46 17.64Q29.25 17.64 29.66 17.27Q30.08 16.90 30.08 16.19L30.08 16.19Q30.08 15.50 29.66 15.09Q29.23 14.68 28.50 14.66L28.50 14.66L26.67 14.66ZM36.63 22L35.09 22L38.31 13.47L39.64 13.47L42.87 22L41.32 22L40.63 20.01L37.32 20.01L36.63 22ZM38.97 15.28L37.74 18.82L40.21 18.82L38.97 15.28ZM46.56 18.19L46.56 18.19L46.56 17.39Q46.56 16.19 46.98 15.27Q47.41 14.35 48.21 13.85Q49.01 13.35 50.06 13.35L50.06 13.35Q51.47 13.35 52.33 14.12Q53.19 14.89 53.33 16.29L53.33 16.29L51.86 16.29Q51.75 15.37 51.32 14.96Q50.89 14.55 50.06 14.55L50.06 14.55Q49.09 14.55 48.57 15.26Q48.06 15.96 48.04 17.33L48.04 17.33L48.04 18.09Q48.04 19.47 48.54 20.20Q49.03 20.92 49.99 20.92L49.99 20.92Q50.86 20.92 51.30 20.53Q51.74 20.14 51.86 19.22L51.86 19.22L53.33 19.22Q53.21 20.59 52.33 21.35Q51.45 22.12 49.99 22.12L49.99 22.12Q48.97 22.12 48.19 21.63Q47.42 21.15 46.99 20.26Q46.57 19.37 46.56 18.19ZM59.13 22L57.65 22L57.65 13.47L59.13 13.47L59.13 17.02L62.94 17.02L62.94 13.47L64.42 13.47L64.42 22L62.94 22L62.94 18.21L59.13 18.21L59.13 22ZM74.74 22L69.16 22L69.16 13.47L74.70 13.47L74.70 14.66L70.64 14.66L70.64 17.02L74.15 17.02L74.15 18.19L70.64 18.19L70.64 20.82L74.74 20.82L74.74 22Z" fill="#FFFFFF"/><path class="svg__text" d="M102.89 22L100.46 22L104.17 13.60L106.51 13.60L110.23 22L107.76 22L107.10 20.37L103.55 20.37L102.89 22ZM105.32 15.93L104.24 18.61L106.40 18.61L105.32 15.93ZM116.76 22L114.38 22L114.38 13.60L116.76 13.60L116.76 22ZM124.31 22L121.93 22L121.93 13.60L125.78 13.60Q126.92 13.60 127.76 13.98Q128.60 14.35 129.05 15.06Q129.51 15.76 129.51 16.71L129.51 16.71Q129.51 17.62 129.08 18.30Q128.66 18.98 127.86 19.36L127.86 19.36L129.67 22L127.13 22L125.61 19.77L124.31 19.77L124.31 22ZM124.31 15.47L124.31 17.93L125.63 17.93Q126.36 17.93 126.74 17.61Q127.11 17.29 127.11 16.71L127.11 16.71Q127.11 16.12 126.74 15.79Q126.36 15.47 125.63 15.47L125.63 15.47L124.31 15.47ZM136.68 22L134.30 22L134.30 13.60L140.89 13.60L140.89 15.44L136.68 15.44L136.68 17.28L140.39 17.28L140.39 19.12L136.68 19.12L136.68 22ZM151.87 22L145.48 22L145.48 13.60L147.86 13.60L147.86 20.11L151.87 20.11L151.87 22ZM155.86 17.80L155.86 17.80Q155.86 16.55 156.46 15.55Q157.07 14.56 158.13 14.00Q159.19 13.43 160.52 13.43L160.52 13.43Q161.85 13.43 162.92 14.00Q163.98 14.56 164.59 15.55Q165.19 16.55 165.19 17.80L165.19 17.80Q165.19 19.05 164.59 20.04Q163.98 21.04 162.92 21.60Q161.86 22.17 160.52 22.17L160.52 22.17Q159.19 22.17 158.13 21.60Q157.07 21.04 156.46 20.04Q155.86 19.05 155.86 17.80ZM158.26 17.80L158.26 17.80Q158.26 18.51 158.56 19.05Q158.86 19.60 159.38 19.90Q159.89 20.20 160.52 20.20L160.52 20.20Q161.16 20.20 161.68 19.90Q162.19 19.60 162.49 19.05Q162.79 18.51 162.79 17.80L162.79 17.80Q162.79 17.09 162.49 16.54Q162.19 16 161.68 15.70Q161.16 15.40 160.52 15.40L160.52 15.40Q159.89 15.40 159.37 15.70Q158.86 16 158.56 16.54Q158.26 17.09 158.26 17.80ZM172.00 22L169.28 13.60L171.73 13.60L173.42 18.96L175.19 13.60L177.38 13.60L179.07 19.01L180.83 13.60L183.10 13.60L180.38 22L177.83 22L176.23 16.89L174.55 22L172.00 22Z" fill="#FFFFFF" x="100.28"/></svg>